<?xml version="1.0" standalone="no"?>
<!DOCTYPE svg PUBLIC "-//W3C//DTD SVG 20010904//EN"
 "http://www.w3.org/TR/2001/REC-SVG-20010904/DTD/svg10.dtd">
<svg version="1.0" xmlns="http://www.w3.org/2000/svg"
 width="520.000000pt" height="520.000000pt" viewBox="0 0 520.000000 520.000000"
 preserveAspectRatio="xMidYMid meet">
<metadata>
Created by potrace 1.11, written by Peter Selinger 2001-2013
</metadata>
<g transform="translate(0.000000,520.000000) scale(0.100000,-0.100000)"
fill="#000000" stroke="none">
<path d="M1795 3620 c-250 -34 -474 -168 -632 -378 -115 -152 -164 -279 -185
-478 -36 -345 115 -675 407 -886 354 -255 887 -215 1190 91 33 33 63 61 68 61
4 0 7 -57 7 -126 0 -69 5 -134 10 -145 10 -17 22 -19 114 -19 75 0 107 4 115
14 8 10 10 259 9 922 l-3 909 -120 0 -120 0 -3 -147 c-1 -82 -5 -148 -7 -148
-3 0 -35 32 -72 70 -164 174 -347 255 -598 264 -66 3 -147 1 -180 -4z m367
-259 c154 -45 304 -156 391 -289 204 -312 137 -752 -148 -967 -364 -276 -870
-175 -1089 217 -63 114 -88 207 -89 338 -1 137 18 225 72 330 110 217 293 350
541 394 58 11 257 -3 322 -23z"/>
<path d="M3964 3620 c-110 -23 -251 -116 -324 -213 -19 -26 -38 -47 -42 -47
-4 0 -9 51 -10 113 l-3 112 -125 0 -125 0 -3 -909 c-1 -663 1 -912 9 -922 8
-10 41 -14 120 -14 94 0 110 2 118 18 5 10 11 240 14 552 5 587 8 627 66 776
52 134 127 221 241 279 39 20 135 25 210 11 l45 -8 23 40 c17 31 22 56 22 111
0 64 -2 72 -24 86 -29 19 -152 28 -212 15z"/>
<path d="M662 1372 c-9 -6 -12 -34 -10 -103 l3 -94 1960 0 1960 0 0 100 0 100
-1950 2 c-1072 2 -1956 -1 -1963 -5z"/>
</g>
</svg>
