<svg xmlns="http://www.w3.org/2000/svg" xmlns:xlink="http://www.w3.org/1999/xlink" viewBox="312 717.552 300 157.895" xmlns:v="https://vecta.io/nano"><path fill="#fff" d="M312 717.552h300v157.895H312z"/><path d="M312 717.552h300v12.146H312zm0 24.292h300V754H312zm0 24.29h300v12.146H312zm0 24.292h300v12.146H312zm0 24.29h300v12.146H312zM312 839h300v12.146H312zm0 24.3h300v12.146H312z" fill="#b22234"/><path fill="#3c3b6e" d="M312 717.552h120v85.02H312z"/><g fill="#fff"><use xlink:href="#B"/><use xlink:href="#C"/><use xlink:href="#D"/><use xlink:href="#E"/><use xlink:href="#B" x="79.579"/><use xlink:href="#D" x="59.684"/><path d="M327.585 732.98l2.86 2.077-1.092 3.36 2.86-2.077 2.858 2.077-1.092-3.36 2.86-2.077h-3.534l-1.09-3.36-1.092 3.36z"/><use xlink:href="#B" x="29.842" y="8.526"/><path d="M367.375 732.98l2.86 2.077-1.092 3.36L372 736.34l2.86 2.077-1.092-3.36 2.858-2.077h-3.533L372 729.62l-1.092 3.36z"/><use xlink:href="#D" x="29.842" y="8.526"/><path d="M407.164 732.98l2.86 2.077-1.092 3.36 2.858-2.077 2.86 2.077-1.092-3.36 2.858-2.077h-3.533l-1.092-3.36-1.09 3.36z"/><use xlink:href="#B" y="17.053"/><use xlink:href="#C" y="17.053"/><use xlink:href="#D" y="17.053"/><use xlink:href="#E" y="17.053"/><use xlink:href="#B" x="79.579" y="17.053"/><use xlink:href="#D" x="59.684" y="17.053"/><path d="M327.83 750.062l2.858 2.077-1.09 3.36 2.858-2.077 2.86 2.077-1.092-3.36 2.858-2.076h-3.533l-1.092-3.36-1.092 3.36z"/><use xlink:href="#F"/><path d="M367.62 750.062l2.858 2.077-1.092 3.36 2.86-2.077 2.858 2.077-1.092-3.36 2.86-2.076h-3.534l-1.1-3.36-1.092 3.36zm19.895 0l2.86 2.077-1.092 3.36 2.858-2.077L395 755.5l-1.092-3.36 2.858-2.076h-3.533l-1.092-3.36-1.092 3.36z"/><use xlink:href="#F" x="59.674"/><path d="M317.94 758.517l2.86 2.076-1.092 3.36 2.858-2.077 2.86 2.077-1.092-3.36 2.858-2.076h-3.533l-1.092-3.36-1.092 3.36zm19.895 0l2.858 2.076-1.092 3.36 2.86-2.077 2.858 2.077-1.1-3.36 2.858-2.076h-3.533l-1.092-3.36-1.092 3.36z"/><use xlink:href="#G"/><path d="M377.624 758.517l2.86 2.076-1.092 3.36 2.858-2.077 2.86 2.077-1.092-3.36 2.86-2.076h-3.534l-1.092-3.36-1.1 3.36zm19.896 0l2.858 2.076-1.1 3.36 2.858-2.077 2.86 2.077-1.092-3.36 2.858-2.076h-3.533l-1.092-3.36-1.092 3.36z"/><use xlink:href="#G" x="59.684"/><use xlink:href="#D" x="-39.301" y="50.846"/><use xlink:href="#B" x="20.382" y="50.846"/><use xlink:href="#H"/><use xlink:href="#I"/><use xlink:href="#J"/><use xlink:href="#H" x="59.684"/><path d="M317.884 792.28l2.858 2.077-1.092 3.36 2.86-2.077 2.858 2.077-1.092-3.36 2.86-2.077H323.6l-1.09-3.36-1.092 3.36z"/><use xlink:href="#B" x="20.14" y="67.826"/><path d="M357.673 792.28l2.858 2.077-1.09 3.36 2.858-2.077 2.86 2.077-1.092-3.36 2.858-2.077H363.4l-1.092-3.36-1.092 3.36z"/><use xlink:href="#I" x="-0.242" y="16.98"/><use xlink:href="#J" x="-0.243" y="16.98"/><use xlink:href="#H" x="59.441" y="16.98"/><use xlink:href="#H" x="-30.016" y="-8.476"/><use xlink:href="#I" x="-30.025" y="-8.476"/><use xlink:href="#D" x="10.252" y="42.37"/><use xlink:href="#B" x="69.936" y="42.37"/><use xlink:href="#I" x="29.66" y="-8.476"/><use xlink:href="#B" x="10.192" y="59.323"/><use xlink:href="#C" x="10.193" y="59.323"/><use xlink:href="#D" x="10.192" y="59.323"/><use xlink:href="#B" x="69.877" y="59.323"/><use xlink:href="#I" x="29.59" y="8.477"/></g><defs ><path id="B" d="M317.638 724.454l2.86 2.077-1.092 3.36 2.858-2.077 2.86 2.077-1.092-3.36 2.858-2.077h-3.533l-1.092-3.36-1.092 3.36z"/><path id="C" d="M337.533 724.454l2.858 2.077-1.092 3.36 2.86-2.077 2.86 2.077-1.092-3.36 2.858-2.077h-3.533l-1.092-3.36-1.092 3.36z"/><path id="D" d="M357.428 724.454l2.858 2.077-1.092 3.36 2.86-2.077 2.858 2.077-1.092-3.36 2.86-2.077h-3.533l-1.092-3.36-1.092 3.36z"/><path id="E" d="M377.323 724.454l2.858 2.077-1.092 3.36 2.86-2.077 2.858 2.077-1.092-3.36 2.86-2.077h-3.534l-1.09-3.36-1.092 3.36z"/><path id="F" d="M347.726 750.062l2.858 2.077-1.092 3.36 2.86-2.077 2.858 2.077-1.092-3.36 2.86-2.076h-3.533l-1.092-3.36-1.092 3.36z"/><path id="G" d="M357.73 758.517l2.858 2.076-1.092 3.36 2.86-2.077 2.858 2.077-1.092-3.36 2.86-2.076h-3.533l-1.092-3.36-1.092 3.36z"/><path id="H" d="M357.916 775.3l2.858 2.077-1.09 3.36 2.858-2.077 2.86 2.077-1.092-3.36 2.858-2.077h-3.533l-1.092-3.36-1.092 3.36z"/><path id="I" d="M377.81 775.3l2.858 2.077-1.092 3.36 2.86-2.077 2.858 2.077-1.09-3.36 2.858-2.077h-3.533l-1.092-3.36-1.092 3.36z"/><path id="J" d="M397.705 775.3l2.86 2.077-1.092 3.36 2.858-2.077 2.86 2.077-1.092-3.36 2.86-2.077h-3.534l-1.092-3.36-1.09 3.36z"/></defs></svg>